<svg width="30" height="30" viewBox="0 0 30 30" fill="none" xmlns="http://www.w3.org/2000/svg">
<path fill-rule="evenodd" clip-rule="evenodd" d="M12.5545 17.375L11.6909 21.3737L11.6636 21.6537C11.6636 22.0125 11.8182 22.345 12.0636 22.5813L13.0273 23.5L19.0091 17.7338C19.3455 17.4188 19.5455 16.9812 19.5455 16.5V7.75C19.5455 6.7875 18.7273 6 17.7273 6H9.54545C8.79091 6 8.14545 6.4375 7.87273 7.0675L5.12727 13.2363C5.04545 13.4375 5 13.6475 5 13.875V15.625C5 16.5875 5.81818 17.375 6.81818 17.375H12.5545ZM6.27972 13.721C6.25787 13.7786 6.25 13.8256 6.25 13.875V15.625C6.25 15.8525 6.46308 16.125 6.81818 16.125H14.1033L12.928 21.5669L12.9184 21.6653C12.9212 21.6701 12.925 21.6753 12.9297 21.6799C12.9299 21.6801 12.9294 21.6796 12.9297 21.6799L13.0225 21.7684L18.1481 16.8275L18.1547 16.8214C18.2466 16.7353 18.2955 16.6248 18.2955 16.5V7.75C18.2955 7.52246 18.0824 7.25 17.7273 7.25H9.54545C9.27867 7.25 9.0904 7.40112 9.01985 7.56409L9.01479 7.57579L6.27972 13.721ZM21.3636 6H25V16.5H21.3636V6ZM22.6136 15.25H23.75V7.25H22.6136V15.25Z" fill="black"/>
</svg>
