<svg width="30" height="30" viewBox="0 0 30 30" fill="none" xmlns="http://www.w3.org/2000/svg">
<path d="M23.125 7H6.875C5.83945 7 5 7.89542 5 9V21C5 22.1046 5.83945 23 6.875 23H23.125C24.1605 23 25 22.1046 25 21V9C25 7.89542 24.1605 7 23.125 7ZM23.125 9V10.7002C22.2491 11.461 20.8528 12.644 17.8677 15.1373C17.2098 15.6893 15.9067 17.0153 15 16.9998C14.0934 17.0155 12.7899 15.689 12.1323 15.1373C9.14766 12.6444 7.75098 11.4611 6.875 10.7002V9H23.125ZM6.875 21V13.2666C7.77008 14.027 9.03941 15.0942 10.9741 16.7102C11.8279 17.427 13.3231 19.0096 15 19C16.6686 19.0096 18.1449 17.45 19.0255 16.7105C20.9602 15.0945 22.2299 14.0271 23.125 13.2666V21H6.875Z" fill="black"/>
</svg>
