<svg width="30" height="30" viewBox="0 0 30 30" fill="none" xmlns="http://www.w3.org/2000/svg">
<path fill-rule="evenodd" clip-rule="evenodd" d="M7.5 9.49829H23.0017V25H7.5V9.49829ZM8.60727 10.6056V23.8928H21.8945V10.6056H8.60727Z" fill="black"/>
<path fill-rule="evenodd" clip-rule="evenodd" d="M13.1019 7.66363C12.5396 8.77251 12.2059 10.4723 12.2059 12.7509H11.0986C11.0986 10.3921 11.4397 8.49319 12.1144 7.16282C12.801 5.80895 13.8654 5 15.2509 5C16.6363 5 17.7008 5.80895 18.3874 7.16282C19.0621 8.49319 19.4031 10.3921 19.4031 12.7509H18.2959C18.2959 10.4723 17.9622 8.77251 17.3998 7.66363C16.8494 6.57823 16.1146 6.10727 15.2509 6.10727C14.3872 6.10727 13.6524 6.57823 13.1019 7.66363Z" fill="black"/>
</svg>
