<svg width="30" height="30" viewBox="0 0 30 30" fill="none" xmlns="http://www.w3.org/2000/svg">
<path d="M9.13003 9.04117L20.709 8M9.13003 9.04117L5.70898 18.1514H13.3406L9.13003 9.04117ZM20.709 8L16.7616 16.8499H23.8669L20.709 8Z" stroke="black"/>
<path d="M13.8663 18.464C13.8663 19.6376 13.395 20.7631 12.556 21.593C11.717 22.4228 10.5791 22.889 9.39263 22.889C8.20613 22.889 7.06823 22.4228 6.22926 21.593C5.39028 20.7631 4.91895 19.6376 4.91895 18.464L9.39263 18.464H13.8663Z" stroke="black"/>
<path d="M24.919 16.5895C24.919 17.7631 24.4477 18.8886 23.6087 19.7184C22.7698 20.5483 21.6319 21.0145 20.4454 21.0145C19.2589 21.0145 18.121 20.5483 17.282 19.7184C16.443 18.8886 15.9717 17.7631 15.9717 16.5895L20.4454 16.5895H24.919Z" stroke="black"/>
</svg>
