<svg width="30" height="30" viewBox="0 0 30 30" fill="none" xmlns="http://www.w3.org/2000/svg">
<path d="M7.25 23.125C7.25 23.6223 7.44754 24.0992 7.79917 24.4508C8.15081 24.8025 8.62772 25 9.125 25H20.375C20.8723 25 21.3492 24.8025 21.7008 24.4508C22.0525 24.0992 22.25 23.6223 22.25 23.125V10H7.25V23.125ZM17.875 13.125C17.875 12.9592 17.9408 12.8003 18.0581 12.6831C18.1753 12.5659 18.3342 12.5 18.5 12.5C18.6658 12.5 18.8247 12.5659 18.9419 12.6831C19.0592 12.8003 19.125 12.9592 19.125 13.125V21.875C19.125 22.0408 19.0592 22.1997 18.9419 22.3169C18.8247 22.4342 18.6658 22.5 18.5 22.5C18.3342 22.5 18.1753 22.4342 18.0581 22.3169C17.9408 22.1997 17.875 22.0408 17.875 21.875V13.125ZM14.125 13.125C14.125 12.9592 14.1908 12.8003 14.3081 12.6831C14.4253 12.5659 14.5842 12.5 14.75 12.5C14.9158 12.5 15.0747 12.5659 15.1919 12.6831C15.3092 12.8003 15.375 12.9592 15.375 13.125V21.875C15.375 22.0408 15.3092 22.1997 15.1919 22.3169C15.0747 22.4342 14.9158 22.5 14.75 22.5C14.5842 22.5 14.4253 22.4342 14.3081 22.3169C14.1908 22.1997 14.125 22.0408 14.125 21.875V13.125ZM10.375 13.125C10.375 12.9592 10.4408 12.8003 10.5581 12.6831C10.6753 12.5659 10.8342 12.5 11 12.5C11.1658 12.5 11.3247 12.5659 11.4419 12.6831C11.5592 12.8003 11.625 12.9592 11.625 13.125V21.875C11.625 22.0408 11.5592 22.1997 11.4419 22.3169C11.3247 22.4342 11.1658 22.5 11 22.5C10.8342 22.5 10.6753 22.4342 10.5581 22.3169C10.4408 22.1997 10.375 22.0408 10.375 21.875V13.125ZM22.875 6.25001H18.1875L17.8203 5.51954C17.7425 5.36337 17.6227 5.23201 17.4743 5.14022C17.326 5.04844 17.1549 4.99988 16.9805 5.00001H12.5156C12.3416 4.99934 12.1708 5.04772 12.023 5.1396C11.8751 5.23149 11.7562 5.36316 11.6797 5.51954L11.3125 6.25001H6.625C6.45924 6.25001 6.30027 6.31585 6.18306 6.43306C6.06585 6.55027 6 6.70925 6 6.87501V8.12501C6 8.29077 6.06585 8.44974 6.18306 8.56695C6.30027 8.68416 6.45924 8.75001 6.625 8.75001H22.875C23.0408 8.75001 23.1997 8.68416 23.3169 8.56695C23.4342 8.44974 23.5 8.29077 23.5 8.12501V6.87501C23.5 6.70925 23.4342 6.55027 23.3169 6.43306C23.1997 6.31585 23.0408 6.25001 22.875 6.25001Z" fill="black"/>
</svg>
