<svg width="30" height="30" viewBox="0 0 30 30" fill="none" xmlns="http://www.w3.org/2000/svg">
<path d="M15 8C10.4545 8 6.57273 10.6953 5 14.5C6.57273 18.3047 10.4545 21 15 21C19.5455 21 23.4273 18.3047 25 14.5C23.4273 10.6953 19.5455 8 15 8ZM15 18.8333C12.4909 18.8333 10.4545 16.892 10.4545 14.5C10.4545 12.108 12.4909 10.1667 15 10.1667C17.5091 10.1667 19.5455 12.108 19.5455 14.5C19.5455 16.892 17.5091 18.8333 15 18.8333ZM15 11.9C13.4909 11.9 12.2727 13.0613 12.2727 14.5C12.2727 15.9387 13.4909 17.1 15 17.1C16.5091 17.1 17.7273 15.9387 17.7273 14.5C17.7273 13.0613 16.5091 11.9 15 11.9Z" fill="black"/>
</svg>
