<svg width="30" height="30" viewBox="0 0 30 30" fill="none" xmlns="http://www.w3.org/2000/svg">
<path fill-rule="evenodd" clip-rule="evenodd" d="M10.9909 11.7662C10.6545 12.0812 10.4545 12.5188 10.4545 13V21.75C10.4545 22.7125 11.2727 23.5 12.2727 23.5H20.4545C21.2091 23.5 21.8545 23.0625 22.1273 22.4325L24.8727 16.2637C24.9545 16.0625 25 15.8525 25 15.625V13.875C25 12.9125 24.1818 12.125 23.1818 12.125H17.4455L18.3091 8.12625L18.3364 7.84625C18.3364 7.4875 18.1818 7.155 17.9364 6.91875L16.9727 6L10.9909 11.7662ZM16.9775 7.73162L11.8519 12.6725L11.8453 12.6786C11.7534 12.7647 11.7045 12.8752 11.7045 13V21.75C11.7045 21.9775 11.9176 22.25 12.2727 22.25H20.4545C20.7213 22.25 20.9096 22.0989 20.9801 21.9359L20.9852 21.9242L23.7203 15.779C23.7421 15.7214 23.75 15.6744 23.75 15.625V13.875C23.75 13.6475 23.5369 13.375 23.1818 13.375H15.8967L17.072 7.93307L17.0816 7.83472C17.0788 7.82989 17.075 7.82475 17.0703 7.82013C17.0701 7.81987 17.0706 7.82039 17.0703 7.82013L16.9775 7.73162ZM8.63636 23.5H5V13H8.63636V23.5ZM7.38636 14.25H6.25V22.25H7.38636V14.25Z" fill="black"/>
</svg>
