<svg width="30" height="30" viewBox="0 0 30 30" fill="none" xmlns="http://www.w3.org/2000/svg">
<path d="M10.5 5C7.462 5 5 7.462 5 10.5C5 11.731 5.4088 12.8623 6.0918 13.7793C6.0378 14.1793 6 14.585 6 15C6 19.971 10.029 24 15 24C15.415 24 15.8207 23.9622 16.2207 23.9082C17.1377 24.5912 18.269 25 19.5 25C22.538 25 25 22.538 25 19.5C25 18.269 24.5912 17.1377 23.9082 16.2207C23.9622 15.8207 24 15.415 24 15C24 10.029 19.971 6 15 6C14.585 6 14.1793 6.0378 13.7793 6.0918C12.8623 5.4088 11.731 5 10.5 5ZM10.5 7C11.253 7 11.9749 7.24031 12.5859 7.69531L13.2383 8.18359L14.0469 8.07422C14.4209 8.02322 14.724 8 15 8C18.86 8 22 11.14 22 15C22 15.276 21.9768 15.5781 21.9258 15.9531L21.8164 16.7617L22.3047 17.4141C22.7597 18.0251 23 18.747 23 19.5C23 21.43 21.43 23 19.5 23C18.747 23 18.0251 22.7597 17.4141 22.3047L16.7617 21.8164L15.9531 21.9258C15.5781 21.9758 15.276 22 15 22C11.14 22 8 18.86 8 15C8 14.724 8.02322 14.4219 8.07422 14.0469L8.18359 13.2383L7.69531 12.5859C7.24031 11.9749 7 11.253 7 10.5C7 8.57 8.57 7 10.5 7ZM14.8496 10C11.0896 10 10.8125 12.2089 10.8125 12.7539C10.8125 13.8379 11.4341 14.6799 12.4961 15.0879C13.6251 15.5219 14.9954 15.7821 15.7734 15.9941C16.9904 16.3271 16.8359 16.9977 16.8359 17.0957C16.8359 18.1257 15.4252 18.391 14.8242 18.334C14.1442 18.27 13.4553 18.4643 12.7383 16.9883C12.6103 16.7243 12.375 16.1465 11.668 16.1465C11.362 16.1465 10.5977 16.3794 10.5977 17.1094C10.5977 18.5414 12.1965 20 14.9785 20C16.4325 20 19.1445 19.4967 19.1465 16.8887C19.1465 14.6177 16.8559 14.2192 15.1719 13.7852C14.7109 13.6662 12.9922 13.4762 12.9922 12.5762C12.9922 12.3092 13.3659 11.668 14.7129 11.668C16.0999 11.668 16.4019 12.3173 16.5859 12.6543C16.7399 12.9213 16.8665 13.1276 17.0215 13.2266C17.6365 13.6196 18.1975 13.3183 18.3965 13.1113C18.5955 12.9043 18.6953 12.676 18.6953 12.416C18.6953 11.285 17.3576 10 14.8496 10Z" fill="black"/>
</svg>
