<svg fill="#fff" xmlns="http://www.w3.org/2000/svg" viewBox="0 0 15 7.88"><path class="cls-1" d="M67,142.23H53a.5.5,0,0,1-.5-.5.5.5,0,0,1,.5-.5H67a.5.5,0,0,1,.5.5A.5.5,0,0,1,67,142.23Z" transform="translate(-52.5 -137.79)"/><path class="cls-1" d="M67,142.23a.52.52,0,0,1-.29-.09L61.8,138.7a.5.5,0,0,1,.57-.82l4.92,3.44a.51.51,0,0,1,.12.7A.49.49,0,0,1,67,142.23Z" transform="translate(-52.5 -137.79)"/><path class="cls-1" d="M62.09,145.67a.48.48,0,0,1-.41-.21.5.5,0,0,1,.12-.7l4.91-3.44a.5.5,0,0,1,.58.82l-4.92,3.44A.51.51,0,0,1,62.09,145.67Z" transform="translate(-52.5 -137.79)"/></svg>