<?xml version="1.0" encoding="UTF-8"?>
<!DOCTYPE svg PUBLIC "-//W3C//DTD SVG 1.1//EN" "http://www.w3.org/Graphics/SVG/1.1/DTD/svg11.dtd">
<!-- Creator: CorelDRAW 2019 (64-Bit) -->
<svg xmlns="http://www.w3.org/2000/svg" xml:space="preserve" width="14.4638mm" height="14.4638mm" version="1.1" style="shape-rendering:geometricPrecision; text-rendering:geometricPrecision; image-rendering:optimizeQuality; fill-rule:evenodd; clip-rule:evenodd"
viewBox="0 0 1446.38 1446.38"
 xmlns:xlink="http://www.w3.org/1999/xlink">
 <defs>
  <style type="text/css">
   <![CDATA[
    .fil3 {fill:#A9C9DD}
    .fil2 {fill:#C8DAEA}
    .fil1 {fill:#F2F8FB}
    .fil0 {fill:url(#id0)}
   ]]>
  </style>
  <linearGradient id="id0" gradientUnits="userSpaceOnUse" x1="225.69" y1="1282.3" x2="1043.93" y2="200.6">
   <stop offset="0" style="stop-opacity:1; stop-color:#1E96C8"/>
   <stop offset="1" style="stop-opacity:1; stop-color:#37AEE2"/>
  </linearGradient>
 </defs>
 <g id="Слой_x0020_1">
  <metadata id="CorelCorpID_0Corel-Layer"/>
  <g id="_2456643977040">
   <path class="fil0" d="M962.84 975.13c-4.68,26.18 -15.54,88.12 -24.06,110.42 -18.78,49.12 -59.17,19.78 -84.18,1.55 -53.85,-39.25 -104.46,-77.25 -156.98,-116.21 -10.68,4.3 -45.67,42.32 -62.19,57.92 -13.46,12.7 -50.74,56.77 -70.73,41.2 -12.93,0.29 -13.11,-8.43 -16.67,-20.55 -3.06,-10.37 -5.95,-19.35 -9.24,-30.28 -14.38,-47.74 -47.11,-144.64 -54.81,-180.95l-177 -54.64c-46.36,-15.28 -34.28,-39.65 1.92,-55.78 26.39,-11.75 59.77,-20.77 83.98,-33.06l278.38 -106.77c92.63,-36.19 183.93,-71.5 276.77,-106.94 21.13,-8.07 48.38,-20.62 68.95,-26.49 31.1,-8.86 48.53,14.53 46.34,44.26 -1.35,18.4 -99.63,472.58 -100.48,476.32zm-945.62 -448.24c-10.76,7.97 -17.24,50.02 -19.95,63.75 -8.06,40.71 -13.02,80.17 -14.92,118.7l0 71.1c5.11,100.83 32.18,196.53 80.61,293.69 23.38,46.9 50.19,83.86 81.15,123.48l18.99 22.87c14.25,14.76 27.01,31.31 40.85,42.87l43.48 37.91c28.82,22.46 65.37,49.95 97.68,67.42 106.67,57.69 161.37,74.73 280.34,91.72 11.29,1.61 22.85,2.81 34.58,3.62l82.87 0c78.07,-4.85 155.29,-22.15 208.8,-42.19 41.77,-15.65 74.92,-31.69 112.76,-52.35 35.59,-19.45 66.82,-42.96 97.87,-67.22 16.51,-12.9 27.88,-25.4 43.52,-37.88 13.83,-11.03 26.05,-27.67 40.97,-42.74 16.12,-16.26 64.01,-80.17 70.3,-96.14 0.38,-0.26 0.95,-1.17 1.08,-0.84l34.58 -59.83c11.74,-23.49 20.25,-42.21 29.8,-67.86 18.55,-49.8 31.29,-95.85 40.21,-157.45 3.02,-20.8 4.96,-41.74 5.95,-62.61l0 -67.6c-3.69,-79.87 -20,-155.4 -42.19,-214.64 -31.51,-84.12 -77.27,-164.18 -136.3,-231.11 -27.52,-31.21 -38.8,-38.32 -61.6,-61.65 -55.19,-56.48 -173.41,-121.21 -247.35,-145.64 -25.14,-8.29 -49.93,-16.3 -75.86,-21.8 -52.6,-11.14 -105.7,-16.73 -158.38,-16.84l-5.89 0c-162.4,0.92 -320.52,54.02 -447.28,157.59 -38.81,31.7 -67.86,59.02 -100.18,97.48 -40.8,48.55 -49.12,63.64 -80.23,115.11 -7.11,11.77 -62.34,120.96 -56.26,139.08z"/>
   <path class="fil1" d="M392.88 694.75c-24.21,12.29 -57.59,21.31 -83.98,33.06 -36.21,16.13 -48.28,40.5 -1.92,55.78l177 54.64c34.39,-18.41 179.54,-113.09 218.7,-137.5 37.22,-23.19 71.81,-45.74 108.35,-68.38l81.33 -51.22c8.88,-5.69 20.8,-13.51 33.08,-6.74 -0.02,11.53 -9.36,14.28 -16.48,21.09 -41.3,39.47 -113.68,99.98 -149.93,136.02l-149.2 134.5c-6.78,5.46 -16.06,15.77 -22.59,19.36 1.71,5.04 -0.98,1.05 3.14,6.5 20.32,12.37 72.39,54.31 99.75,73.58l7.49 5.45c52.52,38.95 103.13,76.96 156.98,116.21 25.01,18.23 65.4,47.58 84.18,-1.55 8.53,-22.29 19.38,-84.25 24.06,-110.42 0.85,-3.74 99.13,-457.92 100.48,-476.32 2.19,-29.73 -15.23,-53.12 -46.34,-44.26 -20.56,5.87 -47.82,18.42 -68.94,26.49 -92.85,35.44 -184.15,70.76 -276.78,106.94l-278.38 106.77z"/>
   <path class="fil2" d="M483.98 838.23c7.7,36.31 40.43,133.22 54.81,180.95 3.29,10.93 6.18,19.91 9.23,30.28 3.57,12.12 3.75,20.84 16.68,20.55l8.3 -1.29c0.18,-6.69 10.57,-168.35 17.38,-176.86 -4.12,-5.45 -1.43,-1.46 -3.14,-6.5 6.53,-3.59 15.81,-13.9 22.59,-19.36l149.2 -134.5c36.25,-36.04 108.63,-96.55 149.93,-136.02 7.12,-6.81 16.46,-9.56 16.48,-21.09 -12.28,-6.77 -24.2,1.05 -33.08,6.74l-81.33 51.22c-36.54,22.64 -71.13,45.19 -108.35,68.38 -39.16,24.41 -184.31,119.09 -218.7,137.5z"/>
   <path class="fil3" d="M564.7 1070.01c19.99,15.57 57.27,-28.5 70.73,-41.2 16.52,-15.6 51.51,-53.62 62.19,-57.92l-7.49 -5.45c-27.36,-19.27 -79.43,-61.21 -99.75,-73.58 -6.81,8.51 -17.2,170.17 -17.38,176.86l-8.3 1.29z"/>
  </g>
 </g>
</svg>
