<?xml version="1.0" encoding="UTF-8"?>
<!DOCTYPE svg PUBLIC "-//W3C//DTD SVG 1.1//EN" "http://www.w3.org/Graphics/SVG/1.1/DTD/svg11.dtd">
<!-- Creator: CorelDRAW 2019 (64-Bit) -->
<svg xmlns="http://www.w3.org/2000/svg" xml:space="preserve" width="14.4638mm" height="14.4638mm" version="1.1" style="shape-rendering:geometricPrecision; text-rendering:geometricPrecision; image-rendering:optimizeQuality; fill-rule:evenodd; clip-rule:evenodd"
viewBox="0 0 1446.38 1446.38"
 xmlns:xlink="http://www.w3.org/1999/xlink">
 <defs>
  <style type="text/css">
   <![CDATA[
    .fil0 {fill:#F7F7F7}
    .fil1 {fill:url(#id0)}
   ]]>
  </style>
  <linearGradient id="id0" gradientUnits="userSpaceOnUse" x1="635.24" y1="944.29" x2="1041.3" y2="569.4">
   <stop offset="0" style="stop-opacity:1; stop-color:#119708"/>
   <stop offset="1" style="stop-opacity:1; stop-color:#45C42F"/>
  </linearGradient>
 </defs>
 <g id="Слой_x0020_1">
  <metadata id="CorelCorpID_0Corel-Layer"/>
  <g id="_2456640950032">
   <path class="fil0" d="M1331.92 1070.53c4.93,-13.09 14.7,-27.52 21.26,-41.3 6.45,-13.53 12.33,-26.91 17.99,-40.85 11.44,-28.14 21.29,-57.02 29.38,-88.17 17.74,-68.29 25.72,-141.27 21.76,-215.6 -19.67,-368.86 -327.26,-687.01 -751.59,-665.29 -48.39,-11.06 -188.76,35.33 -232.83,54.63 -81.52,35.71 -152.34,86.1 -216.78,146.27l-35.29 38.85c-11.1,14.28 -21.22,25.78 -31.77,39.81 -10.11,13.44 -21.93,29.16 -30.58,43.55 -29.07,48.37 -26.69,45.97 -50.41,95.28 -15.06,31.3 -28.36,71.1 -37.73,107.96 -45.23,177.89 -16.18,356.07 50.51,488.24 32.11,63.65 32.47,37.68 10.97,102.09 -12.56,37.63 -23.87,71.62 -36.43,109.25 -12.52,37.49 -24.66,71.29 -37.1,108.58 -11.34,33.99 -27.18,74.58 -35.49,110.2 23.15,-1.93 66.12,-19.08 91.54,-26.1l224.67 -71.96c128.27,-43.09 45.8,-13.88 220.37,34.74 65.93,18.35 127.34,27.25 212.92,27.6l55.16 -3.66c67.84,-9.69 77.65,-10.84 147.77,-31.24 71.62,-20.84 152.56,-68.41 212.11,-112.62 7.44,-5.52 10.29,-8.62 16.8,-13.87 42.98,-34.68 84.25,-78.42 117.66,-122.65 8.43,-11.15 45.19,-59.58 45.13,-73.74z"/>
   <path class="fil1" d="M237.71 1065.3c2.38,24.47 -63.28,180.94 -71.66,223.48 32.8,-7.63 140.35,-44.2 183.64,-58.6 11.02,-3.67 20.17,-6.64 30.96,-10.17 15.5,-5.07 15.48,-2.29 27.36,5.59 147.17,97.7 358.59,113.25 523.3,49.04 59.06,-23.03 131.63,-63.68 176.74,-107.01 8.33,-8.01 15.72,-10.84 21.46,-20.43 31.87,-18.54 98.63,-119.36 120.07,-162.8 70.3,-142.37 83.21,-319.61 23.82,-469.88 -21.33,-53.97 -66.56,-141.47 -105.94,-176.92 -7.98,-17.92 -63.86,-65.47 -83.26,-81.28 -209.72,-170.89 -529.34,-165.36 -737.01,5.5 -19.04,15.66 -74.6,63.14 -83.31,83.87 -14.09,11.85 -37.78,48.2 -50.48,68.69 -89.79,144.81 -111.15,326.82 -57.54,490.75 19.1,58.4 50.67,121.08 81.85,160.17z"/>
   <path class="fil0" d="M475.73 404.78c-39.38,7.8 -75.07,64.89 -86.4,100.97 -17.19,54.73 -9.05,105.66 11.42,154.88 24.17,58.1 73.04,119.85 111.01,167.53 73.63,92.46 162.5,151.73 274.65,193.21 47.06,17.4 97.14,37.04 152.62,28.56 47.73,-7.29 99.8,-41.15 118.29,-68.44 11.32,-16.7 18.61,-49.01 20.1,-71.86 2.37,-36.41 -17.93,-36.48 -44.86,-49.7 -18.97,-9.3 -113.02,-58.78 -130.69,-54.22 -11.09,2.87 -46.82,53.99 -64.83,73.17 -7.91,8.42 -13.19,19.09 -32.25,14.53 -30.23,-7.23 -101.77,-51.45 -120.63,-66.26 -33.35,-26.18 -66.79,-59.07 -92,-94.64 -56.19,-79.29 -36.56,-60.08 4,-114.59 30.82,-41.41 14.42,-55.66 -17.72,-132.36 -15.86,-37.82 -23.61,-80.7 -55.9,-81.99 -10.33,-0.41 -37.9,-0.56 -46.81,1.21z"/>
  </g>
 </g>
</svg>
