<?xml version="1.0" encoding="UTF-8"?>
<!DOCTYPE svg PUBLIC "-//W3C//DTD SVG 1.1//EN" "http://www.w3.org/Graphics/SVG/1.1/DTD/svg11.dtd">
<!-- Creator: CorelDRAW 2019 (64-Bit) -->
<svg xmlns="http://www.w3.org/2000/svg" xml:space="preserve" width="13.7476mm" height="14.4638mm" version="1.1" style="shape-rendering:geometricPrecision; text-rendering:geometricPrecision; image-rendering:optimizeQuality; fill-rule:evenodd; clip-rule:evenodd"
viewBox="0 0 1374.76 1446.38"
 xmlns:xlink="http://www.w3.org/1999/xlink">
 <defs>
  <style type="text/css">
   <![CDATA[
    .fil1 {fill:#7B519C}
    .fil0 {fill:#FEFEFE}
   ]]>
  </style>
 </defs>
 <g id="Слой_x0020_1">
  <metadata id="CorelCorpID_0Corel-Layer"/>
  <g id="_1555854672672">
   <path class="fil0" d="M-17.58 603.77c0,166.92 -4.19,314.27 83.63,461.69 39.12,65.67 98.9,117.28 167.11,150.74 19.49,9.56 55.88,23.78 78.78,29.12 0,43.76 -5.67,156.22 9.62,188.68 14.15,30.04 28.02,30.02 51.62,30.02 29.06,0 50.24,-28.5 66.37,-44.44l78.73 -87.49c5.93,-6.34 6.11,-8.32 11.67,-14.57 33.23,-37.4 22.08,-29.68 53.6,-25.98 17.88,2.1 36.46,-1.2 54.2,1.23 32.95,4.52 69,-0.88 105.84,-0.73 81.88,0.35 216.59,-25.94 286.07,-46.37 112.67,-33.14 191.2,-88.37 252.12,-191.12 92.41,-155.86 96.25,-541.4 30.78,-722.37 -12.96,-35.8 -30.48,-72 -49.4,-102.24 -30.53,-48.81 -68.73,-82.83 -118.12,-112.25 -116.62,-69.44 -294.91,-100.05 -436.51,-100.05 -153.16,0 -214.66,-0.99 -365.14,37.28 -35.71,9.08 -80.11,25.56 -111.19,40.44 -67.43,32.27 -123.47,76.77 -162.16,141.12 -62.37,103.71 -87.62,234.04 -87.62,367.29z"/>
   <path class="fil1" d="M354.04 1152c2.68,56.7 -8.6,225.68 3.14,263.76 23.23,4.61 33.09,-11.81 43.12,-23.75l168.34 -196.26c14,-15.89 19.76,-9.35 58.24,-8.48 113.54,2.57 221.79,-8.57 329.22,-35.46 94.04,-23.53 129.5,-39.07 191.22,-100.54 131.26,-130.71 133.06,-550.11 50.68,-718.25 -35.45,-72.37 -70.33,-111.95 -145.82,-145.69 -185.24,-82.81 -549.07,-96.69 -744.83,-8.1 -76.24,34.5 -119.1,70.34 -155.7,135.93 -36.62,65.63 -54.66,143.94 -61.28,230.33 -12.94,169.02 -15.01,358.71 85.48,491.8 65.37,86.59 153.38,99.19 178.19,114.71z"/>
   <path class="fil0" d="M397.71 320.47c-38.63,10.95 -91.57,60.32 -105.69,94.2 -19.99,47.99 16.9,111.44 35.99,149.56 50.82,101.45 102.22,187.56 182.37,263.96 8.26,7.87 15.93,17.67 24.69,24.8 88.48,71.95 201.01,146.6 311.7,184.14 67.05,22.74 104.09,-18.27 132.73,-51.54 10.93,-12.7 33.62,-42.36 33.83,-66.88 0.26,-31.45 -25.85,-45.21 -42.24,-58.48 -22.98,-18.59 -87.09,-69.46 -118.98,-79.16 -75.03,-22.8 -69.13,69.77 -128.59,64.45 -41.23,-3.68 -109.36,-47.93 -130.16,-68.24 -35.5,-34.66 -58.13,-58.44 -85.6,-112.81 -44.31,-87.68 -17.56,-85.65 26.68,-123.94 57.08,-49.42 -41.63,-150.83 -72.78,-191.49 -13.11,-17.11 -31.3,-37.82 -63.95,-28.57z"/>
   <path class="fil0" d="M643.89 307.33c26.76,14.86 78.57,-1.72 163.67,37.01 38.57,17.55 90.28,54.03 114.88,86.32 52.78,69.24 75,131.76 77.75,225.74 1.34,45.91 38.5,42.46 37.12,-0.02 -6.51,-199.15 -127.82,-353.99 -328.32,-376.88 -33.61,-3.84 -76.4,-14.15 -65.1,27.83z"/>
   <path class="fil0" d="M686.41 373.1c-22.11,10.05 -16.16,31.88 7.55,35.39 60.17,8.9 99.77,15.53 147.51,59.46 92.78,85.38 40,203.93 89.55,180.7 23.09,-10.83 3.11,-91.77 -3.66,-112.04 -11.86,-35.46 -32.74,-63.92 -51.41,-85.7 -44.98,-52.48 -162.44,-90.13 -189.54,-77.81z"/>
   <path class="fil0" d="M712.05 472.12c-11.51,5.08 -27.36,29.28 19.6,35.65 111.27,15.1 55.38,135.62 106.27,109.11 22.67,-11.81 0.05,-80.11 -22.56,-108.34 -10.93,-13.65 -72.18,-50.17 -103.31,-36.42z"/>
  </g>
 </g>
</svg>
