<svg width="30" height="30" viewBox="0 0 30 30" fill="none" xmlns="http://www.w3.org/2000/svg">
<path fill-rule="evenodd" clip-rule="evenodd" d="M5.68652 5.32806C6.06189 5.07713 6.50643 5 6.86458 5H10.4688C11.3764 5 12.125 5.74857 12.125 6.65625C12.125 7.87313 12.313 9.04578 12.6763 10.1357L12.6797 10.1459C12.8605 10.7211 12.7288 11.3676 12.2832 11.8297L12.2619 11.8518L10.5816 13.2822C11.9515 15.8702 14.287 18.1318 16.8061 19.454L18.1478 17.7704L18.1726 17.7456C18.6185 17.2997 19.2712 17.1436 19.8637 17.3444C20.9588 17.699 22.1319 17.8958 23.3438 17.8958C24.2514 17.8958 25 18.6444 25 19.5521V23.1458C25 23.5249 24.9057 23.9674 24.6483 24.3342C24.3731 24.7266 23.9293 25 23.3438 25C13.3321 25 5 16.6787 5 6.65625C5 6.05129 5.27818 5.60102 5.68652 5.32806ZM6.28904 6.4634C6.27135 6.49601 6.25 6.55394 6.25 6.65625C6.25 15.9879 14.022 23.75 23.3438 23.75C23.4332 23.75 23.4874 23.731 23.5214 23.7128C23.5567 23.6939 23.5915 23.6641 23.6251 23.6163C23.6984 23.5117 23.75 23.3397 23.75 23.1458V19.5521C23.75 19.3348 23.5611 19.1458 23.3438 19.1458C21.9947 19.1458 20.6901 18.9265 19.4739 18.532L19.4639 18.5288C19.3365 18.4851 19.1896 18.5108 19.0767 18.6105L17.1584 21.0175L16.7101 20.8037C13.639 19.3387 10.772 16.5818 9.2389 13.396L9.02985 12.9616L11.3999 10.944C11.5027 10.8257 11.5326 10.6701 11.4883 10.5247C11.0822 9.30394 10.875 7.99958 10.875 6.65625C10.875 6.43893 10.6861 6.25 10.4688 6.25H6.86458C6.66023 6.25 6.48498 6.29787 6.38119 6.36725C6.33501 6.39812 6.30712 6.43005 6.28904 6.4634Z" fill="black"/>
</svg>
