<svg width="30" height="30" viewBox="0 0 30 30" fill="none" xmlns="http://www.w3.org/2000/svg">
<path fill-rule="evenodd" clip-rule="evenodd" d="M14.3417 24.2355C14.7488 24.7219 15 25 15 25C15 25 15.2512 24.7219 15.6583 24.2355C17.4007 22.1537 22 16.2555 22 12C22 8.13 18.87 5 15 5C11.13 5 8 8.13 8 12C8 16.2555 12.5993 22.1537 14.3417 24.2355ZM15 23.4634C15.0983 23.345 15.2045 23.2159 15.3173 23.0769C15.9607 22.2841 16.8168 21.1755 17.671 19.9094C18.5272 18.6406 19.3689 17.2317 19.9936 15.8372C20.6242 14.4297 21 13.1102 21 12C21 8.68228 18.3177 6 15 6C11.6823 6 9 8.68228 9 12C9 13.1102 9.37577 14.4297 10.0064 15.8372C10.6311 17.2317 11.4728 18.6406 12.329 19.9094C13.1832 21.1755 14.0393 22.2841 14.6827 23.0769C14.7955 23.2159 14.9017 23.345 15 23.4634ZM15 15.5C13.0677 15.5 11.5 13.9323 11.5 12C11.5 10.0677 13.0677 8.5 15 8.5C16.9323 8.5 18.5 10.0677 18.5 12C18.5 13.9323 16.9323 15.5 15 15.5ZM12.5 12C12.5 13.38 13.62 14.5 15 14.5C16.38 14.5 17.5 13.38 17.5 12C17.5 10.62 16.38 9.5 15 9.5C13.62 9.5 12.5 10.62 12.5 12Z" fill="black"/>
</svg>
