<svg width="30" height="30" viewBox="0 0 30 30" fill="none" xmlns="http://www.w3.org/2000/svg">
<path fill-rule="evenodd" clip-rule="evenodd" d="M17.8557 17.9734C18.0891 17.7324 18.4728 17.7271 18.7128 17.9615L24.8165 23.9239C25.0565 24.1583 25.0618 24.5436 24.8284 24.7845C24.595 25.0254 24.2113 25.0308 23.9713 24.7964L17.8676 18.834C17.6276 18.5996 17.6223 18.2143 17.8557 17.9734Z" fill="black"/>
<path fill-rule="evenodd" clip-rule="evenodd" d="M12.9339 19.6855C16.6462 19.6855 19.6557 16.6635 19.6557 12.9357C19.6557 9.20792 16.6462 6.18593 12.9339 6.18593C9.22156 6.18593 6.21212 9.20792 6.21212 12.9357C6.21212 16.6635 9.22156 19.6855 12.9339 19.6855ZM12.9339 20.9027C17.3157 20.9027 20.8678 17.3358 20.8678 12.9357C20.8678 8.53569 17.3157 4.96875 12.9339 4.96875C8.55212 4.96875 5 8.53569 5 12.9357C5 17.3358 8.55212 20.9027 12.9339 20.9027Z" fill="black"/>
</svg>
