<svg width="30" height="30" viewBox="0 0 30 30" fill="none" xmlns="http://www.w3.org/2000/svg">
<path d="M15.0013 6C9.47858 6 5.00259 9.5625 5.00259 13.9592C5.00259 15.7806 5.77984 17.449 7.06873 18.7921C6.48677 20.2997 5.27599 21.5778 5.25647 21.5931C4.99869 21.861 4.92838 22.2513 5.0768 22.588C5.22522 22.9247 5.56502 23.1429 5.93997 23.1429C8.342 23.1429 10.2363 22.1594 11.3729 21.3712C12.5016 21.7194 13.7202 21.9184 15.0013 21.9184C20.524 21.9184 25 18.3559 25 13.9592C25 9.5625 20.524 6 15.0013 6ZM15.0013 20.0816C13.9585 20.0816 12.9273 19.9247 11.9392 19.6186L11.0526 19.3431L10.291 19.8712C9.73245 20.2577 8.96692 20.6901 8.04517 20.9809C8.33029 20.5179 8.60759 19.9974 8.82241 19.4426L9.23642 18.3673L8.43184 17.5332C7.7249 16.7946 6.87735 15.574 6.87735 13.9592C6.87735 10.5842 10.5214 7.83673 15.0013 7.83673C19.4812 7.83673 23.1252 10.5842 23.1252 13.9592C23.1252 17.3342 19.4812 20.0816 15.0013 20.0816Z" fill="black"/>
</svg>
