<svg width="30" height="30" viewBox="0 0 30 30" fill="none" xmlns="http://www.w3.org/2000/svg">
<path d="M19.2653 22.5V24.0625C19.2653 24.5803 18.8199 25 18.2704 25H6.9949C6.44542 25 6 24.5803 6 24.0625V9.6875C6 9.16973 6.44542 8.75 6.9949 8.75H9.97959V20.3125C9.97959 21.5187 11.021 22.5 12.301 22.5H19.2653ZM19.2653 9.0625V5H12.301C11.7515 5 11.3061 5.41973 11.3061 5.9375V20.3125C11.3061 20.8303 11.7515 21.25 12.301 21.25H23.5765C24.126 21.25 24.5714 20.8303 24.5714 20.3125V10H20.2602C19.713 10 19.2653 9.57813 19.2653 9.0625ZM24.28 7.85043L21.5465 5.27457C21.3599 5.09877 21.1069 5 20.843 5H20.5918V8.75H24.5714V8.51332C24.5714 8.26469 24.4666 8.02624 24.28 7.85043Z" fill="black"/>
</svg>
