<svg width="30" height="30" viewBox="0 0 30 30" fill="none" xmlns="http://www.w3.org/2000/svg">
<path fill-rule="evenodd" clip-rule="evenodd" d="M12.3379 5.9527C12.4314 5.40702 12.8923 5 13.4647 5H17.3028C17.8582 5 18.3433 5.39017 18.4397 5.9527L18.4425 5.96913L18.7483 8.06919C19.1405 8.24998 19.5065 8.46156 19.8537 8.69693L21.9303 7.88557L21.9534 7.87844C22.4081 7.73769 23.0113 7.85997 23.3167 8.39438L25.2397 11.6288C25.5092 12.1054 25.3955 12.7381 24.9417 13.0816V13.0816L23.2205 14.3847C23.2392 14.5908 23.2469 14.7977 23.2469 15.0001C23.2469 15.2097 23.2391 15.413 23.2232 15.6122L24.9277 16.9155C25.4028 17.2635 25.504 17.8819 25.2307 18.3692L25.2225 18.384L23.3067 21.6058C23.012 22.1212 22.4127 22.2883 21.9182 22.1134L21.9079 22.1098L19.846 21.3041C19.4992 21.5407 19.1299 21.7517 18.7382 21.9314L18.433 24.0265C18.3541 24.6138 17.8501 25.0002 17.3028 25.0002H13.4647C12.8879 25.0002 12.4441 24.5927 12.3331 24.0745L12.3285 24.0529L12.0193 21.931C11.6271 21.7502 11.2611 21.5386 10.9139 21.3032L8.83727 22.1146L8.81423 22.1217C8.35947 22.2625 7.75631 22.1402 7.45088 21.6058L5.52789 18.3714C5.25837 17.8947 5.37207 17.2621 5.82588 16.9186V16.9186L7.54731 15.6153C7.52845 15.4063 7.52066 15.1973 7.52066 15.0001C7.52066 14.7918 7.53669 14.581 7.56064 14.3798L5.85654 13.0897C5.34793 12.7307 5.28012 12.0847 5.55352 11.6193L5.55452 11.6176L7.46044 8.39512C7.75499 7.87908 8.35463 7.71178 8.84942 7.88679L8.85964 7.89041L10.9249 8.69734C11.2678 8.46585 11.6359 8.25175 12.0292 8.06966L12.3379 5.9527ZM13.6296 6.33334L13.2392 9.0127L12.8804 9.15466C12.3551 9.3625 11.8653 9.652 11.4106 9.98596L11.115 10.2031L8.53615 9.19552L6.79975 12.1314L9.00283 13.7993L8.93438 14.1988C8.88741 14.4729 8.854 14.7522 8.854 15.0001C8.854 15.2753 8.87248 15.5568 8.91439 15.8014L8.98284 16.2009L6.78011 17.8685L8.52583 20.8048L11.1062 19.7966L11.4022 20.0154C11.8641 20.3569 12.3436 20.637 12.8704 20.8455L13.2292 20.9875L13.6196 23.6668H17.138L17.5284 20.9875L17.8872 20.8455C18.4173 20.6357 18.9049 20.3551 19.3502 20.0193L19.6474 19.795L22.2317 20.8048L23.9779 17.8677L21.8071 16.2079L21.8598 15.8234C21.8954 15.5639 21.9136 15.2928 21.9136 15.0001C21.9136 14.7157 21.8952 14.4438 21.8532 14.1988L21.7847 13.7993L23.9875 12.1317L22.2417 9.19539L19.6614 10.2036L19.3653 9.98474C18.9035 9.6433 18.424 9.36312 17.8971 9.15466L17.5384 9.0127L17.148 6.33334H13.6296ZM15.3838 12.1667C13.7554 12.1667 12.4522 13.4605 12.4522 15.0001C12.4522 16.5396 13.7554 17.8334 15.3838 17.8334C17.0121 17.8334 18.3153 16.5396 18.3153 15.0001C18.3153 13.4605 17.0121 12.1667 15.3838 12.1667ZM11.1189 15.0001C11.1189 12.6896 13.0541 10.8334 15.3838 10.8334C17.7135 10.8334 19.6487 12.6896 19.6487 15.0001C19.6487 17.3106 17.7135 19.1668 15.3838 19.1668C13.0541 19.1668 11.1189 17.3106 11.1189 15.0001Z" fill="black"/>
</svg>
