<svg width="30" height="30" viewBox="0 0 30 30" fill="none" xmlns="http://www.w3.org/2000/svg">
<path d="M23.4275 7.54219C22.9389 7.05327 22.3586 6.66542 21.72 6.40081C21.0814 6.1362 20.3969 6 19.7056 6C19.0143 6 18.3298 6.1362 17.6912 6.40081C17.0526 6.66542 16.4724 7.05327 15.9837 7.54219L14.9695 8.55639L13.9553 7.54219C12.9681 6.55507 11.6293 6.00051 10.2333 6.00051C8.83734 6.00051 7.49852 6.55507 6.5114 7.54219C5.52428 8.52931 4.96973 9.86812 4.96973 11.2641C4.96973 12.6601 5.52428 13.9989 6.5114 14.9861L14.9695 23.4441L23.4275 14.9861C23.9165 14.4974 24.3043 13.9171 24.5689 13.2785C24.8335 12.6399 24.9697 11.9554 24.9697 11.2641C24.9697 10.5728 24.8335 9.88835 24.5689 9.24973C24.3043 8.6111 23.9165 8.03088 23.4275 7.54219Z" stroke="black" stroke-linecap="round" stroke-linejoin="round"/>
</svg>
