<svg width="30" height="30" viewBox="0 0 30 30" fill="none" xmlns="http://www.w3.org/2000/svg">
<path fill-rule="evenodd" clip-rule="evenodd" d="M6.38379 7H24.3838V22.7778H6.38379V7ZM5.38379 6H6.38379H24.3838H25.3838V7V22.7778V23.7778H24.3838H6.38379H5.38379V22.7778V7V6ZM12.0505 11.5556C12.0505 12.1692 11.553 12.6667 10.9393 12.6667C10.3257 12.6667 9.82823 12.1692 9.82823 11.5556C9.82823 10.9419 10.3257 10.4444 10.9393 10.4444C11.553 10.4444 12.0505 10.9419 12.0505 11.5556ZM20.9393 12.0556H13.1616V11.0556H20.9393V12.0556ZM20.9393 15.3889H13.1616V14.3889H20.9393V15.3889ZM20.9393 18.7222H13.1616V17.7222H20.9393V18.7222ZM10.9393 16C11.553 16 12.0505 15.5025 12.0505 14.8889C12.0505 14.2752 11.553 13.7778 10.9393 13.7778C10.3257 13.7778 9.82823 14.2752 9.82823 14.8889C9.82823 15.5025 10.3257 16 10.9393 16ZM12.0505 18.2222C12.0505 18.8359 11.553 19.3333 10.9393 19.3333C10.3257 19.3333 9.82823 18.8359 9.82823 18.2222C9.82823 17.6086 10.3257 17.1111 10.9393 17.1111C11.553 17.1111 12.0505 17.6086 12.0505 18.2222Z" fill="black"/>
</svg>
