<svg width="30" height="30" viewBox="0 0 30 30" fill="none" xmlns="http://www.w3.org/2000/svg">
<path fill-rule="evenodd" clip-rule="evenodd" d="M15.1152 13.363C17.1969 13.363 18.8845 11.6754 18.8845 9.59375C18.8845 7.51206 17.1969 5.82452 15.1152 5.82452C13.0335 5.82452 11.346 7.51206 11.346 9.59375C11.346 11.6754 13.0335 13.363 15.1152 13.363ZM15.1152 14.5938C17.8767 14.5938 20.1152 12.3552 20.1152 9.59375C20.1152 6.83233 17.8767 4.59375 15.1152 4.59375C12.3538 4.59375 10.1152 6.83233 10.1152 9.59375C10.1152 12.3552 12.3538 14.5938 15.1152 14.5938Z" fill="black"/>
<path fill-rule="evenodd" clip-rule="evenodd" d="M9.02339 18.5017C10.6391 16.886 12.8304 15.9783 15.1154 15.9783C17.4003 15.9783 19.5917 16.886 21.2074 18.5017C22.8231 20.1174 23.7308 22.3087 23.7308 24.5937H22.5C22.5 22.6351 21.722 20.7568 20.3371 19.3719C18.9522 17.9871 17.0739 17.209 15.1154 17.209C13.1569 17.209 11.2786 17.9871 9.89367 19.3719C8.50879 20.7568 7.73077 22.6351 7.73077 24.5937H6.5C6.5 22.3087 7.40769 20.1174 9.02339 18.5017Z" fill="black"/>
</svg>
