<svg width="30" height="30" viewBox="0 0 30 30" fill="none" xmlns="http://www.w3.org/2000/svg">
<circle cx="19.1333" cy="11.7224" r="2.97216" stroke="black"/>
<path d="M19.1337 22.8331H25.3836C25.3836 22.0124 25.2219 21.1997 24.9078 20.4414C24.5937 19.6831 24.1334 18.9942 23.553 18.4138C22.9727 17.8334 22.2837 17.3731 21.5254 17.059C20.7671 16.7449 19.9544 16.5833 19.1337 16.5833C18.3129 16.5833 17.5002 16.7449 16.7419 17.059C16.1945 17.2858 15.6831 17.5888 15.2227 17.9582" stroke="black"/>
<circle cx="12.8834" cy="11.1666" r="3.66659" stroke="black"/>
<mask id="path-4-inside-1_3117_12316" fill="white">
<path d="M20.3835 24.4999C20.3835 23.515 20.1895 22.5397 19.8126 21.6298C19.4357 20.7199 18.8833 19.8931 18.1869 19.1967C17.4904 18.5002 16.6637 17.9478 15.7537 17.5709C14.8438 17.194 13.8686 17 12.8837 17C11.8988 17 10.9235 17.194 10.0136 17.5709C9.10366 17.9478 8.27688 18.5002 7.58045 19.1967C6.88402 19.8931 6.33159 20.7199 5.95468 21.6298C5.57778 22.5397 5.38379 23.515 5.38379 24.4999L12.8837 24.4999H20.3835Z"/>
</mask>
<path d="M20.3835 24.4999C20.3835 23.515 20.1895 22.5397 19.8126 21.6298C19.4357 20.7199 18.8833 19.8931 18.1869 19.1967C17.4904 18.5002 16.6637 17.9478 15.7537 17.5709C14.8438 17.194 13.8686 17 12.8837 17C11.8988 17 10.9235 17.194 10.0136 17.5709C9.10366 17.9478 8.27688 18.5002 7.58045 19.1967C6.88402 19.8931 6.33159 20.7199 5.95468 21.6298C5.57778 22.5397 5.38379 23.515 5.38379 24.4999L12.8837 24.4999H20.3835Z" stroke="black" stroke-width="2" mask="url(#path-4-inside-1_3117_12316)"/>
</svg>
