<svg width="30" height="30" viewBox="0 0 30 30" fill="none" xmlns="http://www.w3.org/2000/svg">
<path d="M21.8996 6.9475C21.4014 6.49053 19.3851 5.03368 14.8897 5.01415C14.8897 5.01415 9.59002 4.69778 7.00885 7.05686C5.57313 8.48637 5.06709 10.5838 5.01218 13.1811C4.95726 15.7784 4.89057 20.645 9.60179 21.9651H9.60571L9.60179 23.9805C9.60179 23.9805 9.57041 24.7968 10.1117 24.9609C10.7629 25.164 11.1474 24.5429 11.7711 23.8751C12.1123 23.5079 12.5831 22.9689 12.94 22.5588C16.1645 22.8283 18.6398 22.2112 18.9222 22.1214C19.5734 21.9105 23.2569 21.4418 23.8531 16.5752C24.4729 11.5524 23.555 8.38091 21.8996 6.9475ZM22.4449 16.2081C21.9388 20.27 18.9536 20.5278 18.4044 20.7036C18.1691 20.7778 15.9919 21.3168 13.2578 21.141C13.2578 21.141 11.218 23.5899 10.5825 24.2266C10.3746 24.4336 10.1471 24.4141 10.151 24.004C10.151 23.7345 10.1667 20.6567 10.1667 20.6567C10.1627 20.6567 10.1627 20.6567 10.1667 20.6567C6.17331 19.5553 6.40867 15.4113 6.45182 13.2436C6.49497 11.0759 6.90686 9.29877 8.12291 8.10361C10.3079 6.1312 14.8073 6.42413 14.8073 6.42413C18.6084 6.43975 20.4286 7.58023 20.8522 7.963C22.2527 9.15816 22.9666 12.0172 22.4449 16.2081ZM16.9922 13.0522C17.0079 13.3881 16.5019 13.4115 16.4862 13.0756C16.4431 12.2164 16.039 11.7985 15.2074 11.7516C14.87 11.7321 14.9014 11.2282 15.2349 11.2477C16.3293 11.3063 16.9373 11.9312 16.9922 13.0522ZM17.7886 13.4936C17.8278 11.8375 16.7883 10.5408 14.8151 10.3963C14.4817 10.3729 14.517 9.86901 14.8504 9.89244C17.1256 10.0565 18.3378 11.6149 18.2946 13.5053C18.2907 13.8412 17.7807 13.8255 17.7886 13.4936ZM19.6323 14.0169C19.6362 14.3528 19.1262 14.3567 19.1262 14.0208C19.1027 10.8376 16.9726 9.10348 14.3875 9.08395C14.0541 9.08005 14.0541 8.58011 14.3875 8.58011C17.2786 8.59964 19.6048 10.5877 19.6323 14.0169ZM19.189 17.8485V17.8563C18.7653 18.5984 17.9729 19.4186 17.157 19.1569L17.1492 19.1452C16.3215 18.9147 14.3719 17.9149 13.1401 16.9384C12.5046 16.4385 11.9241 15.8487 11.4769 15.2824C11.0728 14.7785 10.6649 14.181 10.2687 13.4623C9.43311 11.9586 9.24874 11.2868 9.24874 11.2868C8.98592 10.4744 9.80577 9.68544 10.555 9.26362H10.5629C10.9238 9.07614 11.269 9.13863 11.5004 9.41594C11.5004 9.41594 11.9868 9.99399 12.1947 10.2791C12.3909 10.5447 12.6537 10.9704 12.791 11.2087C13.0303 11.6344 12.8812 12.068 12.6458 12.2476L12.1751 12.6226C11.9358 12.814 11.9672 13.1694 11.9672 13.1694C11.9672 13.1694 12.6655 15.798 15.2741 16.4619C15.2741 16.4619 15.6311 16.4932 15.8233 16.2549L16.1999 15.7862C16.3803 15.5519 16.8157 15.4035 17.2433 15.6417C17.8199 15.9659 18.5535 16.4697 19.0399 16.9267C19.3145 17.1493 19.3773 17.4891 19.189 17.8485Z" fill="black"/>
</svg>
