<svg width="30" height="30" viewBox="0 0 30 30" fill="none" xmlns="http://www.w3.org/2000/svg">
<path d="M15.0127 5C9.50616 5 5.02349 9.47881 5.02149 14.9853C5.02049 16.7455 5.48152 18.4639 6.3556 19.978L5 25.0019L10.2329 23.7655C11.6921 24.5616 13.3347 24.9795 15.0068 24.9805H15.0107C20.5163 24.9805 24.997 20.5007 25 14.9951C25.002 12.3259 23.964 9.8162 22.0778 7.92802C20.1917 6.04084 17.685 5.001 15.0127 5ZM15.0107 7.00019C17.147 7.0012 19.1545 7.83407 20.6636 9.34222C22.1728 10.8524 23.0018 12.859 22.9998 14.9932C22.9978 19.3976 19.4152 22.9803 15.0088 22.9803C13.6757 22.9793 12.3551 22.6445 11.192 22.0095L10.5181 21.6422L7.80496 22.2829L8.28548 20.4976L8.50229 19.6967L8.08819 18.9779C7.39012 17.7698 7.02068 16.3885 7.02168 14.9853C7.02368 10.5829 10.6073 7.00019 15.0107 7.00019ZM11.4772 10.3755C11.3102 10.3755 11.0401 10.438 10.8111 10.6881C10.5821 10.9371 9.93603 11.5402 9.93603 12.7683C9.93603 13.9965 10.8306 15.1836 10.9557 15.3506C11.0797 15.5166 12.6825 18.1165 15.2197 19.1166C17.328 19.9477 17.7561 19.7837 18.2142 19.7417C18.6722 19.7007 19.6919 19.1391 19.8999 18.556C20.1079 17.973 20.1084 17.4714 20.0464 17.3684C19.9844 17.2644 19.8179 17.2024 19.5678 17.0773C19.3188 16.9523 18.0916 16.3497 17.8626 16.2667C17.6336 16.1837 17.466 16.1417 17.3 16.3917C17.134 16.6418 16.6569 17.2024 16.5109 17.3684C16.3649 17.5354 16.2198 17.5579 15.9698 17.4329C15.7198 17.3068 14.9159 17.0426 13.9618 16.1925C13.2197 15.5314 12.719 14.7158 12.573 14.4658C12.428 14.2167 12.5593 14.08 12.6843 13.956C12.7964 13.8439 12.9324 13.6644 13.0574 13.5184C13.1814 13.3724 13.2244 13.2684 13.3075 13.1024C13.3905 12.9363 13.348 12.7898 13.286 12.6648C13.224 12.5398 12.7384 11.3071 12.5164 10.8131C12.3293 10.398 12.1318 10.3884 11.9538 10.3814C11.8088 10.3754 11.6432 10.3755 11.4772 10.3755Z" fill="black"/>
</svg>
