<svg width="27" height="27" viewBox="0 0 27 27" fill="none" xmlns="http://www.w3.org/2000/svg">
<circle cx="13.6667" cy="13.7915" r="6.48413" stroke="black"/>
<path d="M2.8094 17.1091C2.03333 14.7639 2.03803 12.2304 2.82279 9.8881C3.60754 7.5458 5.13011 5.52081 7.16239 4.11651C9.19467 2.7122 11.6273 2.00417 14.0957 2.0985C16.5642 2.19282 18.9357 3.08442 20.8548 4.63972C22.774 6.19501 24.1376 8.33029 24.7413 10.7256C25.3451 13.121 25.1564 15.6475 24.2037 17.9266C23.2509 20.2058 21.5853 22.1149 19.4564 23.3679C17.5986 24.4614 15.4752 25.0039 13.333 24.9427" stroke="black"/>
<path d="M13.8017 24.5853C13.8017 24.7167 13.7218 24.897 13.4665 25.0672C13.2147 25.235 12.838 25.3551 12.3969 25.3551C11.9559 25.3551 11.5792 25.235 11.3274 25.0672C11.0721 24.897 10.9922 24.7167 10.9922 24.5853C10.9922 24.4538 11.0721 24.2736 11.3274 24.1034C11.5792 23.9355 11.9559 23.8154 12.3969 23.8154C12.838 23.8154 13.2147 23.9355 13.4665 24.1034C13.7218 24.2736 13.8017 24.4538 13.8017 24.5853Z" stroke="black"/>
<path d="M2.66058 14.8206C2.66058 15.775 2.80498 16.5675 2.90673 17.126C2.92669 17.2356 2.94501 17.3362 2.96028 17.4272C2.97939 17.5411 2.99285 17.6341 3.00044 17.711C2.90106 17.6857 2.76937 17.639 2.61216 17.5608C2.35513 17.4328 2.06744 17.2389 1.79929 16.9828C1.26338 16.4711 0.833008 15.7406 0.833008 14.8206C0.833008 13.8467 1.18831 12.8871 1.64121 12.1694C1.86689 11.8118 2.10675 11.5304 2.31994 11.3449C2.42646 11.2522 2.51803 11.1907 2.58985 11.1543C2.60188 11.1482 2.61278 11.1431 2.62257 11.1389C2.67381 11.2821 2.70801 11.5335 2.71792 11.9155C2.72757 12.2873 2.71396 12.7293 2.69704 13.2286C2.69604 13.2579 2.69504 13.2873 2.69403 13.317C2.67803 13.7869 2.66058 14.2991 2.66058 14.8206Z" stroke="black"/>
<path d="M24.6724 14.8206C24.6724 15.775 24.528 16.5675 24.4263 17.126C24.4063 17.2356 24.388 17.3362 24.3727 17.4272C24.3536 17.5411 24.3402 17.6341 24.3326 17.711C24.4319 17.6857 24.5636 17.639 24.7208 17.5608C24.9779 17.4328 25.2656 17.2389 25.5337 16.9828C26.0696 16.4711 26.5 15.7406 26.5 14.8206C26.5 13.8467 26.1447 12.8871 25.6918 12.1694C25.4661 11.8118 25.2263 11.5304 25.0131 11.3449C24.9065 11.2522 24.815 11.1907 24.7432 11.1543C24.7311 11.1482 24.7202 11.1431 24.7104 11.1389C24.6592 11.2821 24.625 11.5335 24.6151 11.9155C24.6054 12.2873 24.619 12.7293 24.636 13.2286C24.637 13.2579 24.638 13.2873 24.639 13.317C24.655 13.7869 24.6724 14.2991 24.6724 14.8206Z" stroke="black"/>
<mask id="path-6-inside-1_3117_12181" fill="white">
<path d="M11.9228 15.6815C11.3445 15.6815 10.8573 16.1676 11.0786 16.702V16.702C11.2127 17.0255 11.4091 17.3195 11.6567 17.5671C11.9043 17.8147 12.1983 18.0111 12.5218 18.1452C12.8454 18.2792 13.1921 18.3481 13.5423 18.3481C13.8925 18.3481 14.2393 18.2792 14.5628 18.1452C14.8863 18.0111 15.1803 17.8147 15.4279 17.5671C15.6756 17.3195 15.872 17.0255 16.006 16.702V16.702C16.2273 16.1676 15.7401 15.6815 15.1618 15.6815L13.5423 15.6815H11.9228Z"/>
</mask>
<path d="M11.9228 15.6815C11.3445 15.6815 10.8573 16.1676 11.0786 16.702V16.702C11.2127 17.0255 11.4091 17.3195 11.6567 17.5671C11.9043 17.8147 12.1983 18.0111 12.5218 18.1452C12.8454 18.2792 13.1921 18.3481 13.5423 18.3481C13.8925 18.3481 14.2393 18.2792 14.5628 18.1452C14.8863 18.0111 15.1803 17.8147 15.4279 17.5671C15.6756 17.3195 15.872 17.0255 16.006 16.702V16.702C16.2273 16.1676 15.7401 15.6815 15.1618 15.6815L13.5423 15.6815H11.9228Z" stroke="black" stroke-width="2" mask="url(#path-6-inside-1_3117_12181)"/>
</svg>
