<svg width="22" height="19" viewBox="0 0 22 19" fill="none" xmlns="http://www.w3.org/2000/svg">
<path d="M18.8476 14.7587C19.4966 15.0777 19.9441 15.7513 19.9441 16.5308C19.9441 17.6181 19.0736 18.4995 17.9997 18.4995C16.9258 18.4995 16.0552 17.6181 16.0552 16.5308C16.0552 15.9797 16.2791 15.4819 16.6394 15.1245H9.35995C9.72027 15.4819 9.94412 15.9797 9.94412 16.5308C9.94412 17.6181 9.07357 18.4995 7.99968 18.4995C6.92579 18.4995 6.05523 17.6181 6.05523 16.5308C6.05523 15.8003 6.44846 15.1632 7.032 14.8234L4.59284 2.74951H2.16634C1.7061 2.74951 1.33301 2.37176 1.33301 1.90576V1.34326C1.33301 0.877266 1.7061 0.499512 2.16634 0.499512H5.72638C6.12225 0.499512 6.4635 0.7815 6.5428 1.17416L6.86106 2.74951H20.4993C21.0341 2.74951 21.4304 3.25228 21.3119 3.78026L19.6705 11.0928C19.5843 11.4769 19.247 11.7495 18.8579 11.7495L6.46152 11.9995" stroke="black"/>
</svg>
