<svg width="30" height="30" viewBox="0 0 30 30" fill="none" xmlns="http://www.w3.org/2000/svg">
<path d="M5 14.3571C5 9.74143 9.47734 6 15 6C20.5227 6 25 9.74143 25 14.3571C25 18.9729 20.5227 22.7143 15 22.7143C13.4996 22.7143 12.0816 22.4302 10.8047 21.9356C9.84336 22.7243 7.90078 24 5.3125 24C5.25141 24 5.19166 23.9816 5.14065 23.9471C5.08963 23.9125 5.04959 23.8633 5.02547 23.8056C5.00136 23.7478 4.99424 23.6841 5.00498 23.6223C5.01573 23.5604 5.04388 23.5032 5.08594 23.4576C5.10547 23.4363 6.73672 21.6315 7.22734 19.6101C5.83633 18.1745 5 16.3484 5 14.3571Z" stroke="black"/>
<path d="M9.00242 17.5C7.42686 15.2362 7.13248 13.9363 9.00242 11.5" stroke="black"/>
<path d="M18.1 15.95C18.1 16.4967 17.9 16.9667 17.5 17.36C17.1 17.7467 16.5233 17.9867 15.77 18.08V19.2H14.77V18.11C14.2767 18.0833 13.8067 17.9967 13.36 17.85C12.9133 17.7033 12.5533 17.5233 12.28 17.31L12.83 16.09C13.0833 16.2767 13.38 16.4333 13.72 16.56C14.06 16.6867 14.41 16.7667 14.77 16.8V15.13C14.2967 15.0167 13.8967 14.89 13.57 14.75C13.2433 14.61 12.97 14.4067 12.75 14.14C12.53 13.8667 12.42 13.5067 12.42 13.06C12.42 12.5067 12.62 12.0333 13.02 11.64C13.4267 11.24 14.01 10.9967 14.77 10.91V9.8H15.77V10.89C16.59 10.9567 17.2667 11.16 17.8 11.5L17.3 12.73C16.8 12.4433 16.29 12.27 15.77 12.21V13.91C16.2367 14.0167 16.63 14.14 16.95 14.28C17.2767 14.4133 17.55 14.6167 17.77 14.89C17.99 15.1567 18.1 15.51 18.1 15.95ZM14.03 12.98C14.03 13.1467 14.0933 13.2833 14.22 13.39C14.3467 13.4967 14.53 13.5867 14.77 13.66V12.24C14.5167 12.3 14.33 12.3967 14.21 12.53C14.09 12.6567 14.03 12.8067 14.03 12.98ZM15.77 16.76C16.01 16.7067 16.19 16.62 16.31 16.5C16.43 16.38 16.49 16.2367 16.49 16.07C16.49 15.9033 16.4267 15.7667 16.3 15.66C16.18 15.5533 16.0033 15.46 15.77 15.38V16.76Z" fill="black"/>
</svg>
