<svg width="30" height="30" viewBox="0 0 30 30" fill="none" xmlns="http://www.w3.org/2000/svg">
<path d="M15 7C9.47734 7 5 10.4235 5 14.6471C5 16.4691 5.83633 18.1401 7.22734 19.4537C6.73672 21.3033 5.10547 22.9548 5.08594 22.9743C5.04388 23.016 5.01573 23.0683 5.00498 23.1249C4.99424 23.1815 5.00136 23.2399 5.02547 23.2927C5.04959 23.3455 5.08963 23.3905 5.14065 23.4221C5.19166 23.4538 5.25141 23.4706 5.3125 23.4706C7.90078 23.4706 9.84336 22.3033 10.8047 21.5816C12.0816 22.0342 13.4996 22.2941 15 22.2941C20.5227 22.2941 25 18.8706 25 14.6471C25 10.4235 20.5227 7 15 7ZM15.9375 18.1191V18.7647C15.9375 19.0897 15.6578 19.3529 15.3125 19.3529H14.6875C14.3422 19.3529 14.0625 19.0897 14.0625 18.7647V18.1129C13.6164 18.0632 13.1922 17.9221 12.8211 17.6915C12.5781 17.5404 12.5547 17.2096 12.7605 17.0158L13.4449 16.3717C13.591 16.2342 13.8086 16.2158 13.9961 16.2971C14.1203 16.3507 14.2563 16.3787 14.3969 16.3787H15.6773C15.8594 16.3787 16.007 16.2397 16.007 16.0691C16.007 15.9313 15.9086 15.8088 15.768 15.771L13.8121 15.2452C12.943 15.0118 12.2492 14.3368 12.1359 13.4926C11.9777 12.3136 12.8793 11.3077 14.0625 11.1746V10.5294C14.0625 10.2044 14.3422 9.94118 14.6875 9.94118H15.3125C15.6578 9.94118 15.9375 10.2044 15.9375 10.5294V11.1813C16.3836 11.2309 16.8078 11.3721 17.1789 11.6026C17.4219 11.7537 17.4453 12.0846 17.2395 12.2783L16.5551 12.9224C16.409 13.0599 16.1914 13.0783 16.0039 12.9971C15.8781 12.9429 15.7414 12.9151 15.6031 12.9154H14.3227C14.1406 12.9154 13.993 13.0544 13.993 13.225C13.993 13.3629 14.0914 13.4853 14.232 13.5232L16.1879 14.0489C17.057 14.2827 17.7508 14.9574 17.8641 15.8015C18.0223 16.9801 17.1207 17.986 15.9375 18.1191Z" fill="black"/>
</svg>
