<svg width="22" height="19" viewBox="0 0 22 19" fill="none" xmlns="http://www.w3.org/2000/svg">
<path d="M1.33301 8.85665C1.33301 4.24094 5.81035 0.499512 11.333 0.499512C16.8557 0.499512 21.333 4.24094 21.333 8.85665C21.333 13.4724 16.8557 17.2138 11.333 17.2138C9.83262 17.2138 8.41465 16.9297 7.1377 16.4351C6.17637 17.2238 4.23379 18.4995 1.64551 18.4995C1.58442 18.4995 1.52467 18.4811 1.47365 18.4466C1.42264 18.412 1.38259 18.3628 1.35848 18.3051C1.33437 18.2474 1.32724 18.1836 1.33799 18.1218C1.34874 18.0599 1.37688 18.0027 1.41895 17.9571C1.43848 17.9358 3.06973 16.131 3.56035 14.1096C2.16934 12.674 1.33301 10.8479 1.33301 8.85665Z" stroke="black"/>
<path d="M5.33542 11.9995C3.75987 9.73569 3.46549 8.43579 5.33542 5.99951" stroke="black"/>
<path d="M14.433 10.4495C14.433 10.9962 14.233 11.4662 13.833 11.8595C13.433 12.2462 12.8563 12.4862 12.103 12.5795V13.6995H11.103V12.6095C10.6097 12.5828 10.1397 12.4962 9.69301 12.3495C9.24634 12.2028 8.88634 12.0228 8.61301 11.8095L9.16301 10.5895C9.41634 10.7762 9.71301 10.9328 10.053 11.0595C10.393 11.1862 10.743 11.2662 11.103 11.2995V9.62951C10.6297 9.51618 10.2297 9.38951 9.90301 9.24951C9.57634 9.10951 9.30301 8.90618 9.08301 8.63951C8.86301 8.36618 8.75301 8.00618 8.75301 7.55951C8.75301 7.00618 8.95301 6.53284 9.35301 6.13951C9.75967 5.73951 10.343 5.49618 11.103 5.40951V4.29951H12.103V5.38951C12.923 5.45618 13.5997 5.65951 14.133 5.99951L13.633 7.22951C13.133 6.94284 12.623 6.76951 12.103 6.70951V8.40951C12.5697 8.51618 12.963 8.63951 13.283 8.77951C13.6097 8.91284 13.883 9.11618 14.103 9.38951C14.323 9.65618 14.433 10.0095 14.433 10.4495ZM10.363 7.47951C10.363 7.64618 10.4263 7.78284 10.553 7.88951C10.6797 7.99618 10.863 8.08618 11.103 8.15951V6.73951C10.8497 6.79951 10.663 6.89618 10.543 7.02951C10.423 7.15618 10.363 7.30618 10.363 7.47951ZM12.103 11.2595C12.343 11.2062 12.523 11.1195 12.643 10.9995C12.763 10.8795 12.823 10.7362 12.823 10.5695C12.823 10.4028 12.7597 10.2662 12.633 10.1595C12.513 10.0528 12.3363 9.95951 12.103 9.87951V11.2595Z" fill="black"/>
</svg>
