<svg width="25" height="25" viewBox="0 0 25 25" fill="none" xmlns="http://www.w3.org/2000/svg">
<path d="M9.74501 12.6355C9.12901 12.6355 8.62501 12.4275 8.23301 12.0115C7.84901 11.5875 7.65701 11.0235 7.65701 10.3195C7.65701 9.61551 7.84901 9.05551 8.23301 8.63951C8.62501 8.21551 9.12901 8.00351 9.74501 8.00351C10.361 8.00351 10.861 8.21551 11.245 8.63951C11.629 9.05551 11.821 9.61551 11.821 10.3195C11.821 11.0235 11.629 11.5875 11.245 12.0115C10.861 12.4275 10.361 12.6355 9.74501 12.6355ZM14.749 8.09951H16.177L10.441 16.4995H9.01301L14.749 8.09951ZM9.74501 11.6515C10.017 11.6515 10.229 11.5395 10.381 11.3155C10.541 11.0915 10.621 10.7595 10.621 10.3195C10.621 9.87951 10.541 9.54751 10.381 9.32351C10.229 9.09951 10.017 8.98751 9.74501 8.98751C9.48101 8.98751 9.26901 9.10351 9.10901 9.33551C8.94901 9.55951 8.86901 9.88751 8.86901 10.3195C8.86901 10.7515 8.94901 11.0835 9.10901 11.3155C9.26901 11.5395 9.48101 11.6515 9.74501 11.6515ZM15.445 16.5955C15.045 16.5955 14.685 16.5035 14.365 16.3195C14.053 16.1275 13.809 15.8555 13.633 15.5035C13.457 15.1515 13.369 14.7435 13.369 14.2795C13.369 13.8155 13.457 13.4075 13.633 13.0555C13.809 12.7035 14.053 12.4355 14.365 12.2515C14.685 12.0595 15.045 11.9635 15.445 11.9635C16.061 11.9635 16.561 12.1755 16.945 12.5995C17.337 13.0155 17.533 13.5755 17.533 14.2795C17.533 14.9835 17.337 15.5475 16.945 15.9715C16.561 16.3875 16.061 16.5955 15.445 16.5955ZM15.445 15.6115C15.717 15.6115 15.929 15.4995 16.081 15.2755C16.241 15.0435 16.321 14.7115 16.321 14.2795C16.321 13.8475 16.241 13.5195 16.081 13.2955C15.929 13.0635 15.717 12.9475 15.445 12.9475C15.181 12.9475 14.969 13.0595 14.809 13.2835C14.649 13.5075 14.569 13.8395 14.569 14.2795C14.569 14.7195 14.649 15.0515 14.809 15.2755C14.969 15.4995 15.181 15.6115 15.445 15.6115Z" fill="black"/>
<circle cx="12.333" cy="12.4995" r="11.5" stroke="black"/>
<path d="M17.333 5.49951C19.8129 6.75992 20.288 7.8763 20.833 9.99951" stroke="black"/>
</svg>
