<svg width="30" height="30" viewBox="0 0 30 30" fill="none" xmlns="http://www.w3.org/2000/svg">
<path d="M12.233 18.3333L17.013 11.3333H18.203L13.423 18.3333H12.233ZM12.843 15.1133C12.503 15.1133 12.203 15.0366 11.943 14.8833C11.683 14.7233 11.4763 14.4999 11.323 14.2133C11.1763 13.9199 11.103 13.5766 11.103 13.1833C11.103 12.7899 11.1763 12.4499 11.323 12.1633C11.4763 11.8766 11.683 11.6533 11.943 11.4933C12.203 11.3333 12.503 11.2533 12.843 11.2533C13.183 11.2533 13.483 11.3333 13.743 11.4933C14.003 11.6533 14.2063 11.8766 14.353 12.1633C14.4997 12.4499 14.573 12.7899 14.573 13.1833C14.573 13.5766 14.4997 13.9199 14.353 14.2133C14.2063 14.4999 14.003 14.7233 13.743 14.8833C13.483 15.0366 13.183 15.1133 12.843 15.1133ZM12.843 14.2933C13.063 14.2933 13.2397 14.2033 13.373 14.0233C13.5063 13.8366 13.573 13.5566 13.573 13.1833C13.573 12.8099 13.5063 12.5333 13.373 12.3533C13.2397 12.1666 13.063 12.0733 12.843 12.0733C12.6297 12.0733 12.453 12.1666 12.313 12.3533C12.1797 12.5333 12.113 12.8099 12.113 13.1833C12.113 13.5499 12.1797 13.8266 12.313 14.0133C12.453 14.1999 12.6297 14.2933 12.843 14.2933ZM17.593 18.4133C17.2597 18.4133 16.9597 18.3366 16.693 18.1833C16.433 18.0233 16.2297 17.7999 16.083 17.5133C15.9363 17.2199 15.863 16.8766 15.863 16.4833C15.863 16.0899 15.9363 15.7499 16.083 15.4633C16.2297 15.1766 16.433 14.9533 16.693 14.7933C16.9597 14.6333 17.2597 14.5533 17.593 14.5533C17.9397 14.5533 18.243 14.6333 18.503 14.7933C18.763 14.9533 18.9663 15.1766 19.113 15.4633C19.2597 15.7499 19.333 16.0899 19.333 16.4833C19.333 16.8766 19.2597 17.2199 19.113 17.5133C18.9663 17.7999 18.763 18.0233 18.503 18.1833C18.243 18.3366 17.9397 18.4133 17.593 18.4133ZM17.593 17.5933C17.813 17.5933 17.9897 17.5033 18.123 17.3233C18.2563 17.1366 18.323 16.8566 18.323 16.4833C18.323 16.1166 18.2563 15.8399 18.123 15.6533C17.9897 15.4666 17.813 15.3733 17.593 15.3733C17.3797 15.3733 17.203 15.4666 17.063 15.6533C16.9297 15.8333 16.863 16.1099 16.863 16.4833C16.863 16.8566 16.9297 17.1366 17.063 17.3233C17.203 17.5033 17.3797 17.5933 17.593 17.5933Z" fill="black"/>
<circle cx="15" cy="15" r="9.5" stroke="black"/>
<path d="M19.167 9.16675C21.2335 10.2171 21.6295 11.1474 22.0837 12.9167" stroke="black"/>
</svg>
