<svg width="30" height="30" viewBox="0 0 30 30" fill="none" xmlns="http://www.w3.org/2000/svg">
<path d="M15 16.25C18.1055 16.25 20.625 13.7305 20.625 10.625C20.625 7.51953 18.1055 5 15 5C11.8945 5 9.375 7.51953 9.375 10.625C9.375 13.7305 11.8945 16.25 15 16.25ZM20 17.5H17.8477C16.9805 17.8984 16.0156 18.125 15 18.125C13.9844 18.125 13.0234 17.8984 12.1523 17.5H10C7.23828 17.5 5 19.7383 5 22.5V23.125C5 24.1602 5.83984 25 6.875 25H23.125C24.1602 25 25 24.1602 25 23.125V22.5C25 19.7383 22.7617 17.5 20 17.5Z" fill="black"/>
</svg>
