<svg width="23" height="19" viewBox="0 0 23 19" fill="none" xmlns="http://www.w3.org/2000/svg">
<path d="M5.0823 3.79529H18.7325M18.7325 3.79529H21.6667V18.4995H1V0.499512H18.7325V3.79529Z" stroke="black"/>
<circle cx="17.0003" cy="10.4996" r="0.833333" stroke="black"/>
<mask id="path-3-inside-1_3117_12196" fill="white">
<path d="M14.3337 10.4993C14.3337 11.2066 14.6146 11.8849 15.1147 12.385C15.6148 12.8851 16.2931 13.166 17.0003 13.166C17.7076 13.166 18.3858 12.8851 18.8859 12.385C19.386 11.8849 19.667 11.2066 19.667 10.4993L19.015 10.4993C19.015 11.0337 18.8028 11.5461 18.4249 11.924C18.0471 12.3018 17.5347 12.5141 17.0003 12.5141C16.466 12.5141 15.9535 12.3018 15.5757 11.924C15.1979 11.5461 14.9856 11.0337 14.9856 10.4993H14.3337Z"/>
</mask>
<path d="M14.3337 10.4993C14.3337 11.2066 14.6146 11.8849 15.1147 12.385C15.6148 12.8851 16.2931 13.166 17.0003 13.166C17.7076 13.166 18.3858 12.8851 18.8859 12.385C19.386 11.8849 19.667 11.2066 19.667 10.4993L19.015 10.4993C19.015 11.0337 18.8028 11.5461 18.4249 11.924C18.0471 12.3018 17.5347 12.5141 17.0003 12.5141C16.466 12.5141 15.9535 12.3018 15.5757 11.924C15.1979 11.5461 14.9856 11.0337 14.9856 10.4993H14.3337Z" stroke="black" stroke-width="2" mask="url(#path-3-inside-1_3117_12196)"/>
<path d="M5.66699 15.8327V7.16602" stroke="black"/>
</svg>
