<?xml version="1.0" standalone="no"?>
<!DOCTYPE svg PUBLIC "-//W3C//DTD SVG 20010904//EN"
 "http://www.w3.org/TR/2001/REC-SVG-20010904/DTD/svg10.dtd">
<svg version="1.0" xmlns="http://www.w3.org/2000/svg"
 width="261.000000pt" height="261.000000pt" viewBox="0 0 261.000000 261.000000"
 preserveAspectRatio="xMidYMid meet">
<metadata>
Created by potrace 1.11, written by Peter Selinger 2001-2013
</metadata>
<g transform="translate(0.000000,261.000000) scale(0.100000,-0.100000)"
fill="#000000" stroke="none">
<path d="M870 2600 c-75 -6 -111 -25 -137 -73 -15 -28 -18 -68 -19 -327 -1
-162 -3 -298 -3 -302 -1 -4 -130 -8 -288 -8 -159 0 -297 -2 -308 -4 -11 -3
-24 -5 -28 -5 -21 -2 -75 -72 -80 -102 -11 -69 -1 -853 11 -883 7 -16 10 -31
7 -34 -8 -9 35 -76 63 -97 25 -19 45 -20 322 -23 162 -2 297 -7 300 -11 3 -5
5 -88 4 -185 l-1 -175 -29 -29 c-50 -49 -155 -136 -248 -205 -49 -37 -86 -67
-83 -67 25 0 302 193 336 234 21 26 26 19 27 -38 1 -37 7 -63 22 -83 11 -16
23 -44 27 -63 3 -19 17 -48 31 -63 46 -54 52 -55 524 -53 416 1 436 2 468 21
19 11 42 37 53 57 17 34 19 62 19 347 l0 310 323 3 c363 3 357 2 396 83 17 37
18 67 17 475 -1 495 1 480 -85 521 -26 12 -53 26 -61 31 -62 36 -80 38 -287
39 l-208 0 65 32 65 31 2 83 c1 46 6 98 11 117 10 34 10 34 -18 26 -36 -10
-116 -55 -160 -89 -56 -44 -60 -45 -60 -17 0 31 80 97 192 161 69 39 72 42
103 115 17 41 49 102 70 135 21 33 32 55 24 49 -8 -6 -75 -56 -149 -111 -74
-55 -159 -122 -187 -148 l-53 -47 0 31 c0 20 8 35 22 45 12 9 18 16 12 16 -5
0 -15 -5 -22 -12 -9 -9 -12 5 -12 65 0 127 -29 170 -140 207 -62 21 -84 22
-425 23 -198 1 -389 0 -425 -3z"/>
</g>
</svg>
