<svg width="30" height="30" viewBox="0 0 30 30" fill="none" xmlns="http://www.w3.org/2000/svg">
<circle cx="14.9998" cy="15.6717" r="4.7381" stroke="black"/>
<path d="M6.85729 18.16C6.27525 16.4011 6.27877 14.5009 6.86734 12.7442C7.4559 10.9875 8.59783 9.46873 10.122 8.4155C11.6462 7.36227 13.4707 6.83125 15.322 6.902C17.1734 6.97274 18.952 7.64144 20.3914 8.80791C21.8308 9.97439 22.8535 11.5758 23.3063 13.3724C23.759 15.1689 23.6176 17.0638 22.903 18.7731C22.1884 20.4825 20.9392 21.9143 19.3426 22.854C17.9492 23.6742 16.3567 24.081 14.75 24.0351" stroke="black"/>
<mask id="path-3-inside-1_3144_12165" fill="white">
<ellipse cx="14.0477" cy="23.7671" rx="1.42857" ry="0.952381"/>
</mask>
<path d="M14.4763 23.7671C14.4763 23.5917 14.5829 23.5553 14.5032 23.6085C14.4304 23.657 14.2723 23.7195 14.0477 23.7195V25.7195C14.6121 25.7195 15.1683 25.5688 15.6126 25.2726C16.0499 24.981 16.4763 24.4685 16.4763 23.7671H14.4763ZM14.0477 23.7195C13.8231 23.7195 13.665 23.657 13.5923 23.6085C13.5125 23.5553 13.6191 23.5917 13.6191 23.7671H11.6191C11.6191 24.4685 12.0456 24.981 12.4829 25.2726C12.9272 25.5688 13.4833 25.7195 14.0477 25.7195V23.7195ZM13.6191 23.7671C13.6191 23.9425 13.5125 23.9789 13.5923 23.9257C13.665 23.8772 13.8231 23.8147 14.0477 23.8147V21.8147C13.4833 21.8147 12.9272 21.9654 12.4829 22.2616C12.0456 22.5531 11.6191 23.0657 11.6191 23.7671H13.6191ZM14.0477 23.8147C14.2723 23.8147 14.4304 23.8772 14.5032 23.9257C14.5829 23.9789 14.4763 23.9425 14.4763 23.7671H16.4763C16.4763 23.0657 16.0499 22.5531 15.6126 22.2616C15.1683 21.9654 14.6121 21.8147 14.0477 21.8147V23.8147Z" fill="black" mask="url(#path-3-inside-1_3144_12165)"/>
<path d="M6.62068 16.4437C6.62068 17.172 6.73135 17.7789 6.80767 18.1974C6.82249 18.2787 6.83601 18.3528 6.84718 18.4194C6.84754 18.4215 6.8479 18.4237 6.84825 18.4258C6.82213 18.4145 6.79438 18.4016 6.76506 18.387C6.58346 18.2966 6.37802 18.1584 6.18604 17.975C5.80245 17.6088 5.5 17.0917 5.5 16.4437C5.5 15.7419 5.75683 15.0451 6.08686 14.5221C6.25111 14.2618 6.42343 14.0608 6.57225 13.9313C6.59493 13.9115 6.61577 13.8946 6.63474 13.88C6.64892 13.9747 6.65942 14.1022 6.66373 14.2682C6.67085 14.5426 6.66082 14.8703 6.64809 15.2455C6.64734 15.2676 6.64659 15.2898 6.64583 15.3122C6.63383 15.6643 6.62068 16.0505 6.62068 16.4437Z" stroke="black"/>
<path d="M23.3793 16.4437C23.3793 17.172 23.2686 17.7789 23.1923 18.1974C23.1775 18.2787 23.164 18.3528 23.1528 18.4194C23.1525 18.4215 23.1521 18.4237 23.1517 18.4258C23.1779 18.4145 23.2056 18.4016 23.2349 18.387C23.4165 18.2966 23.622 18.1584 23.814 17.975C24.1975 17.6088 24.5 17.0917 24.5 16.4437C24.5 15.7419 24.2432 15.0451 23.9131 14.5221C23.7489 14.2618 23.5766 14.0608 23.4277 13.9313C23.4051 13.9115 23.3842 13.8946 23.3653 13.88C23.3511 13.9747 23.3406 14.1022 23.3363 14.2682C23.3291 14.5426 23.3392 14.8703 23.3519 15.2455C23.3527 15.2676 23.3534 15.2898 23.3542 15.3122C23.3662 15.6643 23.3793 16.0505 23.3793 16.4437Z" stroke="black"/>
<mask id="path-7-inside-2_3144_12165" fill="white">
<path d="M13.6926 17.0894C13.2589 17.0894 12.8935 17.454 13.0595 17.8547V17.8547C13.16 18.0974 13.3073 18.3179 13.493 18.5036C13.6787 18.6893 13.8992 18.8366 14.1419 18.9371C14.3845 19.0376 14.6446 19.0894 14.9072 19.0894C15.1699 19.0894 15.4299 19.0376 15.6726 18.9371C15.9152 18.8366 16.1357 18.6893 16.3214 18.5036C16.5072 18.3179 16.6545 18.0974 16.755 17.8547V17.8547C16.921 17.454 16.5556 17.0894 16.1218 17.0894L14.9072 17.0894H13.6926Z"/>
</mask>
<path d="M13.6926 17.0894C13.2589 17.0894 12.8935 17.454 13.0595 17.8547V17.8547C13.16 18.0974 13.3073 18.3179 13.493 18.5036C13.6787 18.6893 13.8992 18.8366 14.1419 18.9371C14.3845 19.0376 14.6446 19.0894 14.9072 19.0894C15.1699 19.0894 15.4299 19.0376 15.6726 18.9371C15.9152 18.8366 16.1357 18.6893 16.3214 18.5036C16.5072 18.3179 16.6545 18.0974 16.755 17.8547V17.8547C16.921 17.454 16.5556 17.0894 16.1218 17.0894L14.9072 17.0894H13.6926Z" stroke="black" stroke-width="2" mask="url(#path-7-inside-2_3144_12165)"/>
</svg>
