<svg width="30" height="30" viewBox="0 0 30 30" fill="none" xmlns="http://www.w3.org/2000/svg">
<path d="M22.5146 20.2592C23.1636 20.5782 23.6111 21.2518 23.6111 22.0312C23.6111 23.1186 22.7406 24 21.6667 24C20.5928 24 19.7222 23.1186 19.7222 22.0312C19.7222 21.4802 19.9461 20.9824 20.3064 20.625H13.0269C13.3873 20.9824 13.6111 21.4802 13.6111 22.0312C13.6111 23.1186 12.7406 24 11.6667 24C10.5928 24 9.72222 23.1186 9.72222 22.0312C9.72222 21.3008 10.1155 20.6637 10.699 20.3239L8.25983 8.25H5.83333C5.37309 8.25 5 7.87225 5 7.40625V6.84375C5 6.37775 5.37309 6 5.83333 6H9.39337C9.78924 6 10.1305 6.28199 10.2098 6.67465L10.5281 8.25H24.1663C24.7011 8.25 25.0974 8.75277 24.9789 9.28075L23.3375 16.5932C23.2513 16.9774 22.914 17.25 22.5249 17.25L10.1285 17.5" stroke="black"/>
</svg>
