<svg width="30" height="30" viewBox="0 0 30 30" fill="none" xmlns="http://www.w3.org/2000/svg">
<path d="M8.95062 9.18946H22.1605M22.1605 9.18946H25V23.4194H5V6H22.1605V9.18946Z" stroke="black"/>
<circle cx="20.4847" cy="15.6775" r="0.790323" stroke="black"/>
<mask id="path-3-inside-1_3144_12163" fill="white">
<path d="M17.9032 15.6772C17.9032 16.3616 18.1751 17.018 18.659 17.502C19.143 17.9859 19.7994 18.2578 20.4838 18.2578C21.1682 18.2578 21.8246 17.9859 22.3086 17.502C22.7926 17.018 23.0645 16.3616 23.0645 15.6772L22.4335 15.6772C22.4335 16.1943 22.2281 16.6902 21.8625 17.0558C21.4968 17.4215 21.0009 17.6269 20.4838 17.6269C19.9667 17.6269 19.4708 17.4215 19.1051 17.0558C18.7395 16.6902 18.5341 16.1943 18.5341 15.6772H17.9032Z"/>
</mask>
<path d="M17.9032 15.6772C17.9032 16.3616 18.1751 17.018 18.659 17.502C19.143 17.9859 19.7994 18.2578 20.4838 18.2578C21.1682 18.2578 21.8246 17.9859 22.3086 17.502C22.7926 17.018 23.0645 16.3616 23.0645 15.6772L22.4335 15.6772C22.4335 16.1943 22.2281 16.6902 21.8625 17.0558C21.4968 17.4215 21.0009 17.6269 20.4838 17.6269C19.9667 17.6269 19.4708 17.4215 19.1051 17.0558C18.7395 16.6902 18.5341 16.1943 18.5341 15.6772H17.9032Z" stroke="black" stroke-width="2" mask="url(#path-3-inside-1_3144_12163)"/>
<path d="M9.5166 20.8385V12.4514" stroke="black"/>
</svg>
